<svg width="25" height="20" viewBox="0 0 25 20" fill="none" xmlns="http://www.w3.org/2000/svg">
<path d="M6.94463 10C6.94463 6.84375 9.43171 4.28571 12.5004 4.28571C15.5691 4.28571 18.0562 6.84375 18.0562 10C18.0562 13.1563 15.5691 15.7143 12.5004 15.7143C9.43171 15.7143 6.94463 13.1563 6.94463 10ZM12.5004 13.5714C14.4189 13.5714 15.9728 11.9732 15.9728 10C15.9728 8.02679 14.4189 6.42857 12.5004 6.42857C12.47 6.42857 12.444 6.42857 12.3746 6.42857C12.47 6.65625 12.5004 6.89732 12.5004 7.14286C12.5004 8.71875 11.2547 10 9.72253 10C9.4838 10 9.24941 9.96875 9.02805 9.87054C9.02805 9.94196 9.02805 9.96875 9.02805 9.95982C9.02805 11.9732 10.5819 13.5714 12.5004 13.5714ZM4.14156 3.59821C6.18505 1.64464 8.99333 0 12.5004 0C16.0075 0 18.8158 1.64464 20.8602 3.59821C22.8915 5.53571 24.2501 7.81696 24.8925 9.45089C25.0357 9.80357 25.0357 10.1964 24.8925 10.5491C24.2501 12.1429 22.8915 14.4241 20.8602 16.4018C18.8158 18.3571 16.0075 20 12.5004 20C8.99333 20 6.18505 18.3571 4.14156 16.4018C2.11022 14.4241 0.75252 12.1429 0.106702 10.5491C-0.0357302 10.1964 -0.0357302 9.80357 0.106702 9.45089C0.75252 7.81696 2.11022 5.53571 4.14156 3.59821ZM12.5004 2.14286C9.67044 2.14286 7.34395 3.46429 5.56002 5.16518C3.88894 6.76339 2.73524 8.62054 2.14581 10C2.73524 11.3393 3.88894 13.2366 5.56002 14.8348C7.34395 16.5357 9.67044 17.8571 12.5004 17.8571C15.3304 17.8571 17.6569 16.5357 19.4408 14.8348C21.1119 13.2366 22.2274 11.3393 22.8568 10C22.2274 8.62054 21.1119 6.76339 19.4408 5.16518C17.6569 3.46429 15.3304 2.14286 12.5004 2.14286Z" fill="#3AAFA1"/>
</svg>
