<svg width="1194" height="1194" viewBox="0 0 1194 1194" fill="none" xmlns="http://www.w3.org/2000/svg">
<circle cx="597" cy="597" r="572" stroke="#3AAFA1" stroke-width="50"/>
<path d="M576.907 230.654L358.941 470.475C353.221 476.636 350.141 484.85 350.141 493.211C350.141 511.986 365.249 527.094 384.024 527.094H420.547L312.884 634.757C306.723 640.917 303.203 649.425 303.203 658.225C303.203 676.56 318.018 691.375 336.353 691.375H385.344L275.921 822.653C270.787 828.814 268 836.588 268 844.655C268 863.724 283.401 879.125 302.47 879.125H549.625V926.062C549.625 952.025 570.6 973 596.562 973C622.525 973 643.5 952.025 643.5 926.062V879.125H890.655C909.724 879.125 925.125 863.724 925.125 844.655C925.125 836.588 922.338 828.814 917.204 822.653L807.781 691.375H856.772C875.107 691.375 889.922 676.56 889.922 658.225C889.922 649.425 886.402 640.917 880.241 634.757L772.578 527.094H809.101C827.73 527.094 842.984 511.986 842.984 493.211C842.984 484.85 839.904 476.636 834.184 470.475L616.218 230.654C611.23 225.08 604.043 222 596.562 222C589.082 222 581.895 225.08 576.907 230.654Z" fill="#3AAFA1"/>
</svg>
