<svg width="1194" height="1194" viewBox="0 0 1194 1194" fill="none" xmlns="http://www.w3.org/2000/svg">
<circle cx="597" cy="597" r="572" stroke="#3AAFA1" stroke-width="50"/>
<g clip-path="url(#clip0_37_19)">
<path d="M180.992 503.625H1012.01C1041.79 503.625 1066 479.423 1066 449.647C1066 438.939 1062.77 428.525 1056.9 419.724L945.984 253.389C932.926 233.734 911.065 222 887.443 222H305.557C282.082 222 260.074 233.734 247.016 253.389L136.097 419.578C130.228 428.525 127 438.939 127 449.5C127 479.423 151.209 503.625 180.992 503.625ZM220.9 550.562V785.25V902.594C220.9 941.464 252.445 973 291.325 973H619.975C658.855 973 690.4 941.464 690.4 902.594V785.25V550.562H596.5V785.25H314.8V550.562H220.9ZM878.2 550.562V926.062C878.2 952.025 899.181 973 925.15 973C951.119 973 972.1 952.025 972.1 926.062V550.562H878.2Z" fill="#3AAFA1"/>
</g>
<defs>
<clipPath id="clip0_37_19">
<rect width="939" height="751" fill="white" transform="translate(127 222)"/>
</clipPath>
</defs>
</svg>
