<svg width="30" height="30" viewBox="0 0 30 30" fill="none" xmlns="http://www.w3.org/2000/svg">
<g clip-path="url(#clip0_1_127)">
<path d="M21.8613 1.46309C23.5078 -0.184392 26.1797 -0.184392 27.8262 1.46309L28.5352 2.17324C30.1816 3.8209 30.1816 6.49219 28.5352 8.13867L16.9805 19.6992C16.4707 20.2031 15.8438 20.5723 15.1523 20.7715L9.29297 22.4473C8.80078 22.5879 8.27344 22.4473 7.91016 22.0371C7.55274 21.7266 7.41211 21.1992 7.55273 20.707L9.22852 14.8477C9.42774 14.1563 9.79688 13.5293 10.3008 13.0195L21.8613 1.46309ZM25.7871 3.45176C25.2891 2.90274 24.3984 2.90274 23.8477 3.45176L22.1426 5.15625L24.8438 7.85742L26.5488 6.09961C27.0996 5.60156 27.0996 4.71094 26.5488 4.16192L25.7871 3.45176ZM11.9355 15.6211L10.9512 19.0488L14.3789 18.0645C14.6133 18 14.8184 17.877 14.9883 17.707L22.8574 9.84375L20.1563 7.14258L12.293 15.0117C12.123 15.1816 12 15.3867 11.9355 15.6211ZM11.7188 3.75C12.498 3.75 13.125 4.37989 13.125 5.15625C13.125 5.93555 12.498 6.5625 11.7188 6.5625H5.15625C3.86191 6.5625 2.8125 7.61133 2.8125 8.90625V24.8438C2.8125 26.1387 3.86191 27.1875 5.15625 27.1875H21.0938C22.3887 27.1875 23.4375 26.1387 23.4375 24.8438V18.2812C23.4375 17.502 24.0645 16.875 24.8438 16.875C25.6231 16.875 26.25 17.502 26.25 18.2812V24.8438C26.25 27.6914 23.9414 30 21.0938 30H5.15625C2.30859 30 0 27.6914 0 24.8438V8.90625C0 6.0586 2.30859 3.75 5.15625 3.75H11.7188Z" fill="#3AAFA1"/>
</g>
<defs>
<clipPath id="clip0_1_127">
<rect width="30" height="30" fill="white"/>
</clipPath>
</defs>
</svg>
