<svg width="30" height="35" viewBox="0 0 30 35" fill="none" xmlns="http://www.w3.org/2000/svg">
<g clip-path="url(#clip0_4_103)">
<path d="M10.7143 26.9531C10.7143 27.5461 10.2321 28.0312 9.64286 28.0312C9.05357 28.0312 8.57143 27.5461 8.57143 26.9531V12.9375C8.57143 12.3445 9.05357 11.8594 9.64286 11.8594C10.2321 11.8594 10.7143 12.3445 10.7143 12.9375V26.9531ZM16.0714 26.9531C16.0714 27.5461 15.5893 28.0312 15 28.0312C14.4107 28.0312 13.9286 27.5461 13.9286 26.9531V12.9375C13.9286 12.3445 14.4107 11.8594 15 11.8594C15.5893 11.8594 16.0714 12.3445 16.0714 12.9375V26.9531ZM21.4286 26.9531C21.4286 27.5461 20.9464 28.0312 20.3571 28.0312C19.7679 28.0312 19.2857 27.5461 19.2857 26.9531V12.9375C19.2857 12.3445 19.7679 11.8594 20.3571 11.8594C20.9464 11.8594 21.4286 12.3445 21.4286 12.9375V26.9531ZM21.2612 1.68053L23.7188 5.39062H28.3929C29.2835 5.39062 30 6.11499 30 7.00781C30 7.904 29.2835 8.625 28.3929 8.625H27.8571V29.1094C27.8571 32.0877 25.4598 34.5 22.5 34.5H7.5C4.54152 34.5 2.14286 32.0877 2.14286 29.1094V8.625H1.60714C0.719866 8.625 0 7.904 0 7.00781C0 6.11499 0.719866 5.39062 1.60714 5.39062H6.28259L8.73884 1.68053C9.43527 0.630501 10.6071 0 11.8594 0H18.1406C19.3929 0 20.5647 0.630568 21.2612 1.68053ZM10.1451 5.39062H19.8549L18.5826 3.47426C18.4821 3.32467 18.3147 3.23438 18.1406 3.23438H11.8594C11.6853 3.23438 11.4576 3.32467 11.4174 3.47426L10.1451 5.39062ZM5.35714 29.1094C5.35714 30.3021 6.31674 31.2656 7.5 31.2656H22.5C23.6853 31.2656 24.6429 30.3021 24.6429 29.1094V8.625H5.35714V29.1094Z" fill="#3AAFA1"/>
</g>
<defs>
<clipPath id="clip0_4_103">
<rect width="30" height="34.5" fill="white"/>
</clipPath>
</defs>
</svg>
