<svg width="25" height="20" viewBox="0 0 25 20" fill="none" xmlns="http://www.w3.org/2000/svg">
<path d="M5.88684 3.62391C7.6173 2.27627 9.83603 1.2501 12.5001 1.2501C15.6563 1.2501 18.1836 2.68915 20.0234 4.39852C21.8516 6.09381 23.0742 8.08989 23.6523 9.51957C23.7812 9.82816 23.7812 10.1719 23.6523 10.4805C23.1289 11.7422 22.0781 13.5195 20.5313 15.1055L24.6406 18.3242C25.0468 18.6445 25.1211 19.2343 24.8007 19.6406C24.4804 20.0468 23.8906 20.121 23.4844 19.8007L0.359392 1.67549C-0.0481047 1.35596 -0.119549 0.766905 0.199862 0.359331C0.519312 -0.0481658 1.10837 -0.119611 1.51618 0.199801L5.88684 3.62391ZM7.41418 4.82429L9.21104 6.23053C10.0899 5.46491 11.2423 5.00007 12.5001 5.00007C15.2618 5.00007 17.5 7.23833 17.5 10C17.5 10.8281 17.3008 11.6055 16.9453 12.293L19.0469 13.9414C20.3555 12.6094 21.3242 11.0586 21.8203 10C21.2539 8.79301 20.25 7.16802 18.7461 5.7696C17.1407 4.28133 15.0469 3.08993 12.5001 3.08993C10.5274 3.08993 8.79307 3.81766 7.41418 4.82429ZM15.4258 11.1016C15.5547 10.7578 15.625 10.3867 15.625 9.96487C15.625 8.27348 14.2266 6.8399 12.5001 6.8399C12.4727 6.8399 12.4493 6.87506 12.3868 6.87506C12.4727 7.07427 12.5001 7.28521 12.5001 7.4649C12.5001 7.89849 12.4063 8.27348 12.2423 8.60551L15.4258 11.1016ZM15.793 16.1914L17.4297 17.4804C16.0118 18.2461 14.3672 18.75 12.5001 18.75C9.34385 18.75 6.81652 17.3125 4.9767 15.6015C3.14937 13.8711 1.9275 11.875 1.34626 10.4805C1.21813 10.1719 1.21813 9.82816 1.34626 9.51957C1.71891 8.62504 2.35523 7.4688 3.24585 6.30866L4.71889 7.4688C3.98842 8.37895 3.5064 9.28129 3.18179 9.96487C3.71186 11.1719 4.75014 12.832 6.25403 14.2305C7.85948 15.7187 9.95322 16.875 12.5001 16.875C13.6993 16.875 14.7969 16.6172 15.793 16.1914ZM7.50011 9.96487C7.50011 9.88675 7.50402 9.77738 7.51183 9.668L9.70322 11.3945C10.1134 12.2188 10.879 12.8359 11.797 13.0117L13.9922 14.7734C13.5196 14.8867 13.0196 15 12.4649 15C9.73837 15 7.46496 12.7617 7.46496 9.96487H7.50011Z" fill="#3AAFA1"/>
</svg>
